<svg width="512" height="512" viewBox="0 0 512 512" fill="none" xmlns="http://www.w3.org/2000/svg">
<path d="M148.985 250.855V265.595C148.985 266.622 149.223 267.373 149.7 267.85C150.213 268.29 151.056 268.51 152.23 268.51H155.805V275H150.965C144.475 275 141.23 271.847 141.23 265.54V250.855H137.6V244.53H141.23V236.995H148.985V244.53H155.805V250.855H148.985ZM178.503 244.09C180.813 244.09 182.866 244.603 184.663 245.63C186.46 246.62 187.853 248.105 188.843 250.085C189.87 252.028 190.383 254.375 190.383 257.125V275H182.683V258.17C182.683 255.75 182.078 253.898 180.868 252.615C179.658 251.295 178.008 250.635 175.918 250.635C173.791 250.635 172.105 251.295 170.858 252.615C169.648 253.898 169.043 255.75 169.043 258.17V275H161.343V234.3H169.043V248.325C170.033 247.005 171.353 245.978 173.003 245.245C174.653 244.475 176.486 244.09 178.503 244.09ZM195.725 259.655C195.725 256.575 196.33 253.843 197.54 251.46C198.787 249.077 200.455 247.243 202.545 245.96C204.672 244.677 207.037 244.035 209.64 244.035C211.913 244.035 213.893 244.493 215.58 245.41C217.303 246.327 218.678 247.482 219.705 248.875V244.53H227.46V275H219.705V270.545C218.715 271.975 217.34 273.167 215.58 274.12C213.857 275.037 211.858 275.495 209.585 275.495C207.018 275.495 204.672 274.835 202.545 273.515C200.455 272.195 198.787 270.343 197.54 267.96C196.33 265.54 195.725 262.772 195.725 259.655ZM219.705 259.765C219.705 257.895 219.338 256.3 218.605 254.98C217.872 253.623 216.882 252.597 215.635 251.9C214.388 251.167 213.05 250.8 211.62 250.8C210.19 250.8 208.87 251.148 207.66 251.845C206.45 252.542 205.46 253.568 204.69 254.925C203.957 256.245 203.59 257.822 203.59 259.655C203.59 261.488 203.957 263.102 204.69 264.495C205.46 265.852 206.45 266.897 207.66 267.63C208.907 268.363 210.227 268.73 211.62 268.73C213.05 268.73 214.388 268.382 215.635 267.685C216.882 266.952 217.872 265.925 218.605 264.605C219.338 263.248 219.705 261.635 219.705 259.765ZM242.021 268.675H255.606V275H233.276V268.785L246.586 250.855H233.331V244.53H255.441V250.745L242.021 268.675ZM279.607 275L269.267 262.02V275H261.567V234.3H269.267V257.455L279.497 244.53H289.507L276.087 259.82L289.617 275H279.607ZM297.592 240.9C296.235 240.9 295.098 240.478 294.182 239.635C293.302 238.755 292.862 237.673 292.862 236.39C292.862 235.107 293.302 234.043 294.182 233.2C295.098 232.32 296.235 231.88 297.592 231.88C298.948 231.88 300.067 232.32 300.947 233.2C301.863 234.043 302.322 235.107 302.322 236.39C302.322 237.673 301.863 238.755 300.947 239.635C300.067 240.478 298.948 240.9 297.592 240.9ZM301.387 244.53V275H293.687V244.53H301.387ZM338.144 244.53L319.279 289.41H311.084L317.684 274.23L305.474 244.53H314.109L321.974 265.815L329.949 244.53H338.144ZM340.315 259.655C340.315 256.575 340.92 253.843 342.13 251.46C343.377 249.077 345.045 247.243 347.135 245.96C349.262 244.677 351.627 244.035 354.23 244.035C356.503 244.035 358.483 244.493 360.17 245.41C361.893 246.327 363.268 247.482 364.295 248.875V244.53H372.05V275H364.295V270.545C363.305 271.975 361.93 273.167 360.17 274.12C358.447 275.037 356.448 275.495 354.175 275.495C351.608 275.495 349.262 274.835 347.135 273.515C345.045 272.195 343.377 270.343 342.13 267.96C340.92 265.54 340.315 262.772 340.315 259.655ZM364.295 259.765C364.295 257.895 363.928 256.3 363.195 254.98C362.462 253.623 361.472 252.597 360.225 251.9C358.978 251.167 357.64 250.8 356.21 250.8C354.78 250.8 353.46 251.148 352.25 251.845C351.04 252.542 350.05 253.568 349.28 254.925C348.547 256.245 348.18 257.822 348.18 259.655C348.18 261.488 348.547 263.102 349.28 264.495C350.05 265.852 351.04 266.897 352.25 267.63C353.497 268.363 354.817 268.73 356.21 268.73C357.64 268.73 358.978 268.382 360.225 267.685C361.472 266.952 362.462 265.925 363.195 264.605C363.928 263.248 364.295 261.635 364.295 259.765Z" fill="#09451A"/>
</svg>
