<svg width="186" height="28" viewBox="0 0 186 28" fill="none" xmlns="http://www.w3.org/2000/svg">
<path d="M8.344 27.384C5.528 27.384 3.52267 26.648 2.328 25.176C1.15467 23.6827 0.568 21.5387 0.568 18.744V9.4C0.568 6.54133 1.15467 4.38667 2.328 2.936C3.50133 1.464 5.50667 0.727999 8.344 0.727999C11.0533 0.727999 12.9733 1.37867 14.104 2.68C15.2347 3.98133 15.8 5.82667 15.8 8.216V10.456H10.2V7.864C10.2 6.86133 10.0933 6.09333 9.88 5.56C9.66667 5.02667 9.15467 4.76 8.344 4.76C7.53333 4.76 7 5.048 6.744 5.624C6.488 6.17867 6.36 6.95733 6.36 7.96V20.152C6.36 21.176 6.488 21.9653 6.744 22.52C7.02133 23.0533 7.55467 23.32 8.344 23.32C9.13333 23.32 9.63467 23.0533 9.848 22.52C10.0827 21.9653 10.2 21.176 10.2 20.152V17.432H15.8V19.672C15.8 22.104 15.2347 24.0027 14.104 25.368C12.9733 26.712 11.0533 27.384 8.344 27.384ZM21.9593 1.08H28.4873L33.3193 27H28.0393L27.1753 21.528H23.3673L22.4713 27H17.0633L21.9593 1.08ZM26.6313 18.104L25.2553 7.992L23.8793 18.104H26.6313ZM35.2963 1.08H41.0243V23.128H46.9763V27H35.2963V1.08ZM48.8438 1.08H54.5718V23.128H60.5238V27H48.8438V1.08ZM72.2748 5.336H68.3708V1.08H81.9068V5.336H78.0348V27H72.2748V5.336ZM90.7228 27.384C87.9281 27.384 85.9334 26.6693 84.7388 25.24C83.5441 23.7893 82.9468 21.656 82.9468 18.84V9.208C82.9468 6.392 83.5441 4.28 84.7388 2.872C85.9334 1.44267 87.9281 0.727999 90.7228 0.727999C93.5388 0.727999 95.5441 1.44267 96.7388 2.872C97.9548 4.30133 98.5628 6.41333 98.5628 9.208V18.84C98.5628 21.656 97.9548 23.7893 96.7388 25.24C95.5441 26.6693 93.5388 27.384 90.7228 27.384ZM90.7228 23.32C91.5334 23.32 92.0668 23.0533 92.3228 22.52C92.5788 21.9653 92.7068 21.2187 92.7068 20.28V7.8C92.7068 6.84 92.5788 6.09333 92.3228 5.56C92.0668 5.02667 91.5334 4.76 90.7228 4.76C89.9548 4.76 89.4428 5.03733 89.1868 5.592C88.9308 6.12533 88.8028 6.86133 88.8028 7.8V20.28C88.8028 21.2187 88.9201 21.9653 89.1548 22.52C89.3894 23.0533 89.9121 23.32 90.7228 23.32ZM112.604 1.08H119.132L123.964 27H118.684L117.82 21.528H114.012L113.116 27H107.708L112.604 1.08ZM117.276 18.104L115.9 7.992L114.524 18.104H117.276ZM125.941 1.08H131.669V23.128H137.621V27H125.941V1.08ZM139.489 1.08H145.217V23.128H151.169V27H139.489V1.08ZM156.684 1.08H163.212L168.044 27H162.764L161.9 21.528H158.092L157.196 27H151.788L156.684 1.08ZM161.356 18.104L159.98 7.992L158.604 18.104H161.356ZM170.117 1.08H175.845V11.576H179.845V1.08H185.605V27H179.845V15.672H175.845V27H170.117V1.08Z" fill="#052105"/>
</svg>
