<svg width="189" height="67" viewBox="0 0 189 67" fill="none" xmlns="http://www.w3.org/2000/svg">
<path d="M9.344 38.384C6.528 38.384 4.52267 37.648 3.328 36.176C2.15467 34.6827 1.568 32.5387 1.568 29.744V20.4C1.568 17.5413 2.15467 15.3867 3.328 13.936C4.50133 12.464 6.50667 11.728 9.344 11.728C12.0533 11.728 13.9733 12.3787 15.104 13.68C16.2347 14.9813 16.8 16.8267 16.8 19.216V21.456H11.2V18.864C11.2 17.8613 11.0933 17.0933 10.88 16.56C10.6667 16.0267 10.1547 15.76 9.344 15.76C8.53333 15.76 8 16.048 7.744 16.624C7.488 17.1787 7.36 17.9573 7.36 18.96V31.152C7.36 32.176 7.488 32.9653 7.744 33.52C8.02133 34.0533 8.55467 34.32 9.344 34.32C10.1333 34.32 10.6347 34.0533 10.848 33.52C11.0827 32.9653 11.2 32.176 11.2 31.152V28.432H16.8V30.672C16.8 33.104 16.2347 35.0027 15.104 36.368C13.9733 37.712 12.0533 38.384 9.344 38.384ZM22.9593 12.08H29.4873L34.3193 38H29.0393L28.1753 32.528H24.3673L23.4713 38H18.0633L22.9593 12.08ZM27.6313 29.104L26.2553 18.992L24.8793 29.104H27.6313ZM36.2963 12.08H42.0243V34.128H47.9763V38H36.2963V12.08ZM49.8438 12.08H55.5718V34.128H61.5238V38H49.8438V12.08ZM73.2748 16.336H69.3708V12.08H82.9068V16.336H79.0348V38H73.2748V16.336ZM91.7228 38.384C88.9281 38.384 86.9334 37.6693 85.7388 36.24C84.5441 34.7893 83.9468 32.656 83.9468 29.84V20.208C83.9468 17.392 84.5441 15.28 85.7388 13.872C86.9334 12.4427 88.9281 11.728 91.7228 11.728C94.5388 11.728 96.5441 12.4427 97.7388 13.872C98.9548 15.3013 99.5628 17.4133 99.5628 20.208V29.84C99.5628 32.656 98.9548 34.7893 97.7388 36.24C96.5441 37.6693 94.5388 38.384 91.7228 38.384ZM91.7228 34.32C92.5334 34.32 93.0668 34.0533 93.3228 33.52C93.5788 32.9653 93.7068 32.2187 93.7068 31.28V18.8C93.7068 17.84 93.5788 17.0933 93.3228 16.56C93.0668 16.0267 92.5334 15.76 91.7228 15.76C90.9548 15.76 90.4428 16.0373 90.1868 16.592C89.9308 17.1253 89.8028 17.8613 89.8028 18.8V31.28C89.8028 32.2187 89.9201 32.9653 90.1548 33.52C90.3894 34.0533 90.9121 34.32 91.7228 34.32ZM113.604 12.08H120.132L124.964 38H119.684L118.82 32.528H115.012L114.116 38H108.708L113.604 12.08ZM118.276 29.104L116.9 18.992L115.524 29.104H118.276ZM126.941 12.08H132.669V34.128H138.621V38H126.941V12.08ZM140.489 12.08H146.217V34.128H152.169V38H140.489V12.08ZM157.684 12.08H164.212L169.044 38H163.764L162.9 32.528H159.092L158.196 38H152.788L157.684 12.08ZM162.356 29.104L160.98 18.992L159.604 29.104H162.356ZM171.117 12.08H176.845V22.576H180.845V12.08H186.605V38H180.845V26.672H176.845V38H171.117V12.08Z" fill="#052105"/>
<rect x="17" y="44" width="155" height="23" rx="11.5" fill="#D1D1D1"/>
<path d="M44.7471 55.7822H40.7412V60H39.0117V50.0469H45.335V51.4414H40.7412V54.4014H44.7471V55.7822ZM50.4554 60C50.3824 59.8587 50.3186 59.6286 50.2639 59.3096C49.7353 59.861 49.0882 60.1367 48.3225 60.1367C47.5797 60.1367 46.9736 59.9248 46.5042 59.501C46.0348 59.0771 45.8001 58.5531 45.8001 57.9287C45.8001 57.1403 46.0917 56.5365 46.6751 56.1172C47.263 55.6934 48.1015 55.4814 49.1907 55.4814H50.2093V54.9961C50.2093 54.6133 50.1022 54.3079 49.888 54.0801C49.6738 53.8477 49.3479 53.7314 48.9104 53.7314C48.5322 53.7314 48.2223 53.8271 47.9807 54.0186C47.7392 54.2054 47.6184 54.4447 47.6184 54.7363H45.9573C45.9573 54.3307 46.0917 53.9525 46.3606 53.6016C46.6295 53.2461 46.9941 52.9681 47.4544 52.7676C47.9192 52.5671 48.4365 52.4668 49.0061 52.4668C49.872 52.4668 50.5624 52.6855 51.0774 53.123C51.5924 53.556 51.8567 54.1667 51.8704 54.9551V58.291C51.8704 58.9564 51.9638 59.4873 52.1507 59.8838V60H50.4554ZM48.6302 58.8037C48.9583 58.8037 49.2659 58.724 49.553 58.5645C49.8447 58.4049 50.0634 58.1908 50.2093 57.9219V56.5273H49.3137C48.6985 56.5273 48.236 56.6344 47.9261 56.8486C47.6162 57.0628 47.4612 57.3659 47.4612 57.7578C47.4612 58.0768 47.566 58.332 47.7757 58.5234C47.9899 58.7103 48.2747 58.8037 48.6302 58.8037ZM55.4117 50.8057V52.6035H56.7173V53.834H55.4117V57.9629C55.4117 58.2454 55.4664 58.4505 55.5757 58.5781C55.6897 58.7012 55.8902 58.7627 56.1773 58.7627C56.3687 58.7627 56.5624 58.7399 56.7584 58.6943V59.9795C56.3801 60.0843 56.0155 60.1367 55.6646 60.1367C54.3886 60.1367 53.7505 59.4326 53.7505 58.0244V53.834H52.5337V52.6035H53.7505V50.8057H55.4117ZM64.2098 57.71L65.3856 52.6035H67.0057L64.9891 60H63.6219L62.036 54.9209L60.4774 60H59.1102L57.0868 52.6035H58.7069L59.9032 57.6553L61.4207 52.6035H62.6717L64.2098 57.71ZM72.256 60C72.1831 59.8587 72.1193 59.6286 72.0646 59.3096C71.5359 59.861 70.8888 60.1367 70.1232 60.1367C69.3803 60.1367 68.7742 59.9248 68.3048 59.501C67.8354 59.0771 67.6007 58.5531 67.6007 57.9287C67.6007 57.1403 67.8924 56.5365 68.4757 56.1172C69.0636 55.6934 69.9021 55.4814 70.9913 55.4814H72.0099V54.9961C72.0099 54.6133 71.9028 54.3079 71.6886 54.0801C71.4744 53.8477 71.1486 53.7314 70.7111 53.7314C70.3328 53.7314 70.0229 53.8271 69.7814 54.0186C69.5398 54.2054 69.4191 54.4447 69.4191 54.7363H67.7579C67.7579 54.3307 67.8924 53.9525 68.1612 53.6016C68.4301 53.2461 68.7947 52.9681 69.255 52.7676C69.7198 52.5671 70.2371 52.4668 70.8068 52.4668C71.6726 52.4668 72.3631 52.6855 72.878 53.123C73.393 53.556 73.6573 54.1667 73.671 54.9551V58.291C73.671 58.9564 73.7644 59.4873 73.9513 59.8838V60H72.256ZM70.4308 58.8037C70.7589 58.8037 71.0665 58.724 71.3536 58.5645C71.6453 58.4049 71.864 58.1908 72.0099 57.9219V56.5273H71.1144C70.4991 56.5273 70.0366 56.6344 69.7267 56.8486C69.4168 57.0628 69.2618 57.3659 69.2618 57.7578C69.2618 58.0768 69.3667 58.332 69.5763 58.5234C69.7905 58.7103 70.0753 58.8037 70.4308 58.8037ZM85.279 51.4414H82.1755V60H80.4596V51.4414H77.3835V50.0469H85.279V51.4414ZM89.5722 54.1211C89.3535 54.0846 89.1279 54.0664 88.8955 54.0664C88.1344 54.0664 87.6217 54.3581 87.3574 54.9414V60H85.6963V52.6035H87.2822L87.3232 53.4307C87.7242 52.7881 88.2802 52.4668 88.9912 52.4668C89.2282 52.4668 89.4241 52.4987 89.5791 52.5625L89.5722 54.1211ZM94.5559 60C94.483 59.8587 94.4192 59.6286 94.3645 59.3096C93.8358 59.861 93.1887 60.1367 92.4231 60.1367C91.6802 60.1367 91.0741 59.9248 90.6047 59.501C90.1353 59.0771 89.9006 58.5531 89.9006 57.9287C89.9006 57.1403 90.1923 56.5365 90.7756 56.1172C91.3635 55.6934 92.2021 55.4814 93.2912 55.4814H94.3098V54.9961C94.3098 54.6133 94.2027 54.3079 93.9885 54.0801C93.7743 53.8477 93.4485 53.7314 93.011 53.7314C92.6327 53.7314 92.3228 53.8271 92.0813 54.0186C91.8398 54.2054 91.719 54.4447 91.719 54.7363H90.0578C90.0578 54.3307 90.1923 53.9525 90.4612 53.6016C90.7301 53.2461 91.0946 52.9681 91.5549 52.7676C92.0198 52.5671 92.537 52.4668 93.1067 52.4668C93.9726 52.4668 94.663 52.6855 95.178 53.123C95.6929 53.556 95.9573 54.1667 95.9709 54.9551V58.291C95.9709 58.9564 96.0644 59.4873 96.2512 59.8838V60H94.5559ZM92.7307 58.8037C93.0588 58.8037 93.3664 58.724 93.6536 58.5645C93.9452 58.4049 94.164 58.1908 94.3098 57.9219V56.5273H93.4143C92.7991 56.5273 92.3365 56.6344 92.0266 56.8486C91.7167 57.0628 91.5618 57.3659 91.5618 57.7578C91.5618 58.0768 91.6666 58.332 91.8762 58.5234C92.0904 58.7103 92.3752 58.8037 92.7307 58.8037ZM98.9722 52.6035L99.02 53.458C99.5669 52.7972 100.285 52.4668 101.173 52.4668C102.714 52.4668 103.498 53.3486 103.525 55.1123V60H101.864V55.208C101.864 54.7386 101.761 54.3923 101.556 54.1689C101.356 53.9411 101.025 53.8271 100.565 53.8271C99.895 53.8271 99.396 54.1302 99.0679 54.7363V60H97.4068V52.6035H98.9722ZM109.09 57.9902C109.09 57.694 108.967 57.4684 108.721 57.3135C108.479 57.1585 108.076 57.0218 107.511 56.9033C106.945 56.7848 106.474 56.6344 106.096 56.4521C105.266 56.0511 104.851 55.4701 104.851 54.709C104.851 54.071 105.12 53.5378 105.658 53.1094C106.196 52.681 106.879 52.4668 107.709 52.4668C108.593 52.4668 109.306 52.6855 109.848 53.123C110.395 53.5605 110.669 54.1279 110.669 54.8252H109.008C109.008 54.5062 108.889 54.2419 108.652 54.0322C108.415 53.818 108.101 53.7109 107.709 53.7109C107.344 53.7109 107.046 53.7952 106.813 53.9639C106.585 54.1325 106.471 54.3581 106.471 54.6406C106.471 54.8958 106.579 55.0941 106.793 55.2354C107.007 55.3766 107.44 55.5202 108.092 55.666C108.743 55.8073 109.254 55.9782 109.623 56.1787C109.997 56.3747 110.272 56.6117 110.45 56.8896C110.632 57.1676 110.723 57.5049 110.723 57.9014C110.723 58.5667 110.448 59.1068 109.896 59.5215C109.345 59.9316 108.623 60.1367 107.729 60.1367C107.123 60.1367 106.583 60.0273 106.109 59.8086C105.635 59.5898 105.266 59.2891 105.002 58.9062C104.737 58.5234 104.605 58.111 104.605 57.6689H106.219C106.241 58.0609 106.389 58.3639 106.663 58.5781C106.936 58.7878 107.299 58.8926 107.75 58.8926C108.187 58.8926 108.52 58.8105 108.748 58.6465C108.976 58.4779 109.09 58.2591 109.09 57.9902ZM113.663 60H112.002V49.5H113.663V60ZM119.618 60C119.545 59.8587 119.481 59.6286 119.426 59.3096C118.897 59.861 118.25 60.1367 117.485 60.1367C116.742 60.1367 116.136 59.9248 115.666 59.501C115.197 59.0771 114.962 58.5531 114.962 57.9287C114.962 57.1403 115.254 56.5365 115.837 56.1172C116.425 55.6934 117.264 55.4814 118.353 55.4814H119.371V54.9961C119.371 54.6133 119.264 54.3079 119.05 54.0801C118.836 53.8477 118.51 53.7314 118.073 53.7314C117.694 53.7314 117.384 53.8271 117.143 54.0186C116.901 54.2054 116.781 54.4447 116.781 54.7363H115.119C115.119 54.3307 115.254 53.9525 115.523 53.6016C115.792 53.2461 116.156 52.9681 116.617 52.7676C117.081 52.5671 117.599 52.4668 118.168 52.4668C119.034 52.4668 119.725 52.6855 120.24 53.123C120.755 53.556 121.019 54.1667 121.033 54.9551V58.291C121.033 58.9564 121.126 59.4873 121.313 59.8838V60H119.618ZM117.792 58.8037C118.12 58.8037 118.428 58.724 118.715 58.5645C119.007 58.4049 119.226 58.1908 119.371 57.9219V56.5273H118.476C117.861 56.5273 117.398 56.6344 117.088 56.8486C116.778 57.0628 116.623 57.3659 116.623 57.7578C116.623 58.0768 116.728 58.332 116.938 58.5234C117.152 58.7103 117.437 58.8037 117.792 58.8037ZM124.574 50.8057V52.6035H125.88V53.834H124.574V57.9629C124.574 58.2454 124.629 58.4505 124.738 58.5781C124.852 58.7012 125.052 58.7627 125.339 58.7627C125.531 58.7627 125.725 58.7399 125.921 58.6943V59.9795C125.542 60.0843 125.178 60.1367 124.827 60.1367C123.551 60.1367 122.913 59.4326 122.913 58.0244V53.834H121.696V52.6035H122.913V50.8057H124.574ZM128.642 60H126.98V52.6035H128.642V60ZM126.878 50.6826C126.878 50.4274 126.958 50.2155 127.117 50.0469C127.281 49.8783 127.514 49.7939 127.814 49.7939C128.115 49.7939 128.348 49.8783 128.512 50.0469C128.676 50.2155 128.758 50.4274 128.758 50.6826C128.758 50.9333 128.676 51.1429 128.512 51.3115C128.348 51.4756 128.115 51.5576 127.814 51.5576C127.514 51.5576 127.281 51.4756 127.117 51.3115C126.958 51.1429 126.878 50.9333 126.878 50.6826ZM129.865 56.2334C129.865 55.5088 130.009 54.8571 130.296 54.2783C130.583 53.695 130.987 53.2484 131.506 52.9385C132.026 52.624 132.623 52.4668 133.297 52.4668C134.295 52.4668 135.104 52.7881 135.724 53.4307C136.348 54.0732 136.685 54.9255 136.736 55.9873L136.742 56.377C136.742 57.1061 136.601 57.7578 136.319 58.332C136.041 58.9062 135.64 59.3506 135.115 59.665C134.596 59.9795 133.994 60.1367 133.311 60.1367C132.267 60.1367 131.431 59.7904 130.802 59.0977C130.178 58.4004 129.865 57.473 129.865 56.3154V56.2334ZM131.527 56.377C131.527 57.138 131.684 57.735 131.998 58.168C132.313 58.5964 132.75 58.8105 133.311 58.8105C133.871 58.8105 134.307 58.5918 134.616 58.1543C134.931 57.7168 135.088 57.0765 135.088 56.2334C135.088 55.486 134.926 54.8936 134.603 54.4561C134.284 54.0186 133.849 53.7998 133.297 53.7998C132.755 53.7998 132.324 54.0163 132.005 54.4492C131.686 54.8776 131.527 55.5202 131.527 56.377ZM139.409 52.6035L139.457 53.458C140.003 52.7972 140.721 52.4668 141.61 52.4668C143.15 52.4668 143.934 53.3486 143.961 55.1123V60H142.3V55.208C142.3 54.7386 142.198 54.3923 141.993 54.1689C141.792 53.9411 141.462 53.8271 141.001 53.8271C140.332 53.8271 139.832 54.1302 139.504 54.7363V60H137.843V52.6035H139.409ZM149.526 57.9902C149.526 57.694 149.403 57.4684 149.157 57.3135C148.915 57.1585 148.512 57.0218 147.947 56.9033C147.382 56.7848 146.91 56.6344 146.532 56.4521C145.703 56.0511 145.288 55.4701 145.288 54.709C145.288 54.071 145.557 53.5378 146.094 53.1094C146.632 52.681 147.316 52.4668 148.145 52.4668C149.029 52.4668 149.743 52.6855 150.285 53.123C150.832 53.5605 151.105 54.1279 151.105 54.8252H149.444C149.444 54.5062 149.326 54.2419 149.089 54.0322C148.852 53.818 148.537 53.7109 148.145 53.7109C147.781 53.7109 147.482 53.7952 147.25 53.9639C147.022 54.1325 146.908 54.3581 146.908 54.6406C146.908 54.8958 147.015 55.0941 147.229 55.2354C147.443 55.3766 147.876 55.5202 148.528 55.666C149.18 55.8073 149.69 55.9782 150.059 56.1787C150.433 56.3747 150.709 56.6117 150.886 56.8896C151.069 57.1676 151.16 57.5049 151.16 57.9014C151.16 58.5667 150.884 59.1068 150.333 59.5215C149.781 59.9316 149.059 60.1367 148.166 60.1367C147.56 60.1367 147.02 60.0273 146.546 59.8086C146.072 59.5898 145.703 59.2891 145.438 58.9062C145.174 58.5234 145.042 58.111 145.042 57.6689H146.655C146.678 58.0609 146.826 58.3639 147.099 58.5781C147.373 58.7878 147.735 58.8926 148.186 58.8926C148.624 58.8926 148.956 58.8105 149.184 58.6465C149.412 58.4779 149.526 58.2591 149.526 57.9902Z" fill="black"/>
</svg>
