<svg class="w-32" width="192" height="48" viewBox="0 0 192 48" fill="none" xmlns="http://www.w3.org/2000/svg">
<path d="M9.44195 16.245V28.305C9.44195 29.145 9.63695 29.76 10.027 30.15C10.447 30.51 11.137 30.69 12.097 30.69H15.022V36H11.062C5.75195 36 3.09695 33.42 3.09695 28.26V16.245H0.126953V11.07H3.09695V4.905H9.44195V11.07H15.022V16.245H9.44195ZM33.5932 10.71C35.4832 10.71 37.1632 11.13 38.6332 11.97C40.1032 12.78 41.2432 13.995 42.0532 15.615C42.8932 17.205 43.3132 19.125 43.3132 21.375V36H37.0132V22.23C37.0132 20.25 36.5182 18.735 35.5282 17.685C34.5382 16.605 33.1882 16.065 31.4782 16.065C29.7382 16.065 28.3582 16.605 27.3382 17.685C26.3482 18.735 25.8532 20.25 25.8532 22.23V36H19.5532V2.7H25.8532V14.175C26.6632 13.095 27.7432 12.255 29.0932 11.655C30.4432 11.025 31.9432 10.71 33.5932 10.71ZM47.6842 23.445C47.6842 20.925 48.1792 18.69 49.1692 16.74C50.1892 14.79 51.5542 13.29 53.2642 12.24C55.0042 11.19 56.9392 10.665 59.0692 10.665C60.9292 10.665 62.5492 11.04 63.9292 11.79C65.3392 12.54 66.4642 13.485 67.3042 14.625V11.07H73.6492V36H67.3042V32.355C66.4942 33.525 65.3692 34.5 63.9292 35.28C62.5192 36.03 60.8842 36.405 59.0242 36.405C56.9242 36.405 55.0042 35.865 53.2642 34.785C51.5542 33.705 50.1892 32.19 49.1692 30.24C48.1792 28.26 47.6842 25.995 47.6842 23.445ZM67.3042 23.535C67.3042 22.005 67.0042 20.7 66.4042 19.62C65.8042 18.51 64.9942 17.67 63.9742 17.1C62.9542 16.5 61.8592 16.2 60.6892 16.2C59.5192 16.2 58.4392 16.485 57.4492 17.055C56.4592 17.625 55.6492 18.465 55.0192 19.575C54.4192 20.655 54.1192 21.945 54.1192 23.445C54.1192 24.945 54.4192 26.265 55.0192 27.405C55.6492 28.515 56.4592 29.37 57.4492 29.97C58.4692 30.57 59.5492 30.87 60.6892 30.87C61.8592 30.87 62.9542 30.585 63.9742 30.015C64.9942 29.415 65.8042 28.575 66.4042 27.495C67.0042 26.385 67.3042 25.065 67.3042 23.535ZM85.5623 30.825H96.6773V36H78.4073V30.915L89.2973 16.245H78.4523V11.07H96.5423V16.155L85.5623 30.825ZM116.315 36L107.855 25.38V36H101.555V2.7H107.855V21.645L116.225 11.07H124.415L113.435 23.58L124.505 36H116.315ZM131.029 8.1C129.919 8.1 128.989 7.755 128.239 7.065C127.519 6.345 127.159 5.46 127.159 4.41C127.159 3.36 127.519 2.49 128.239 1.8C128.989 1.08 129.919 0.719998 131.029 0.719998C132.139 0.719998 133.054 1.08 133.774 1.8C134.524 2.49 134.899 3.36 134.899 4.41C134.899 5.46 134.524 6.345 133.774 7.065C133.054 7.755 132.139 8.1 131.029 8.1ZM134.134 11.07V36H127.834V11.07H134.134ZM164.209 11.07L148.774 47.79H142.069L147.469 35.37L137.479 11.07H144.544L150.979 28.485L157.504 11.07H164.209ZM165.985 23.445C165.985 20.925 166.48 18.69 167.47 16.74C168.49 14.79 169.855 13.29 171.565 12.24C173.305 11.19 175.24 10.665 177.37 10.665C179.23 10.665 180.85 11.04 182.23 11.79C183.64 12.54 184.765 13.485 185.605 14.625V11.07H191.95V36H185.605V32.355C184.795 33.525 183.67 34.5 182.23 35.28C180.82 36.03 179.185 36.405 177.325 36.405C175.225 36.405 173.305 35.865 171.565 34.785C169.855 33.705 168.49 32.19 167.47 30.24C166.48 28.26 165.985 25.995 165.985 23.445ZM185.605 23.535C185.605 22.005 185.305 20.7 184.705 19.62C184.105 18.51 183.295 17.67 182.275 17.1C181.255 16.5 180.16 16.2 178.99 16.2C177.82 16.2 176.74 16.485 175.75 17.055C174.76 17.625 173.95 18.465 173.32 19.575C172.72 20.655 172.42 21.945 172.42 23.445C172.42 24.945 172.72 26.265 173.32 27.405C173.95 28.515 174.76 29.37 175.75 29.97C176.77 30.57 177.85 30.87 178.99 30.87C180.16 30.87 181.255 30.585 182.275 30.015C183.295 29.415 184.105 28.575 184.705 27.495C185.305 26.385 185.605 25.065 185.605 23.535Z" fill="#242424"/>
</svg>
